# xmcd
# 
# Track frame offsets:
#     150
#     30537
#     41812
#     64740
#     79872
#     92497
#     112882
#     124580
#     139627
#     156077
#     176405
#     190650
#     211185
#     233572
#     251557
#     265910
#     276965
#     297882
# 
# Disc length: 4486
# 
# Revision: 14
# Processed by: cddbd v1.5.2PL0 Copyright (c) Steve Scherf et al.
# Submitted via: fre:ac v1.0.17
# 
DISCID=f1118412
DTITLE=Various Artist - Lee presents: The Blues
DYEAR=1993
DGENRE=Blues
TTITLE0=Gary Moore - Story Of The Blues
TTITLE1=John Lee Hooker - Boom Boom
TTITLE2=Chris Rea - 90's Blues
TTITLE3=Jeff Healey Band - Don't Let Your Chances Go By
TTITLE4=Lee Dorsey - Working In The Coalmine
TTITLE5=John Lee Hooker - Bonnie Raitt - I'm In The Mood
TTITLE6=Sonny Boy Williamson II. - Don't Start Me To Talkin'
TTITLE7=Freddie King - Going Down
TTITLE8=Sonny Terry - Johnny Winter - Willie Dixon - I Think I Got The Blues
TTITLE9=George Thorogood and The Destroyers - Madison Blues
TTITLE10=Johnny Winter - See See Baby
TTITLE11=Albert Collins - Robert Cray - Johnny Copeland - Bring Your Fine Self Home
TTITLE12=B.B. King - The Thrill Is Gone
TTITLE13=Muddy Waters - I'm Your Hoochie Coochie Man
TTITLE14=Buddy Guy - Early In The Morning
TTITLE15=Howlin' Wolf - The Red Rooster
TTITLE16=Albert Collins - Brick
TTITLE17=Stevie Ray Vaughan - Texas Flood
EXTD=
EXTT0=
EXTT1=
EXTT2=
EXTT3=
EXTT4=
EXTT5=
EXTT6=
EXTT7=
EXTT8=
EXTT9=
EXTT10=
EXTT11=
EXTT12=
EXTT13=
EXTT14=
EXTT15=
EXTT16=
EXTT17=
PLAYORDER=
